<svg xmlns="http://www.w3.org/2000/svg" viewBox="0 0 512 512" width="512" height="512">
  <!-- Background -->
  <rect width="512" height="512" rx="112" fill="#0f1115"/>

  <!-- Shield -->
  <path d="M256 88
           L392 138
           L392 284
           C392 364 330 428 256 456
           C182 428 120 364 120 284
           L120 138 Z"
        fill="#1a2233"/>
  <path d="M256 108
           L372 152
           L372 284
           C372 352 318 408 256 432
           C194 408 140 352 140 284
           L140 152 Z"
        fill="#1e2d47" stroke="#5b8cff" stroke-width="3" stroke-opacity="0.6"/>

  <!-- Lock body -->
  <rect x="200" y="262" width="112" height="88" rx="14" fill="#5b8cff"/>

  <!-- Lock shackle -->
  <path d="M224 262 L224 228 A32 32 0 0 1 288 228 L288 262"
        fill="none" stroke="#5b8cff" stroke-width="18" stroke-linecap="round"/>

  <!-- Keyhole circle -->
  <circle cx="256" cy="298" r="14" fill="#0f1115"/>
  <!-- Keyhole slot -->
  <rect x="249" y="298" width="14" height="22" rx="5" fill="#0f1115"/>
</svg>
